<svg width="1059" height="459" viewBox="0 0 1059 459" fill="none" xmlns="http://www.w3.org/2000/svg">
<path d="M96.07 322.46C88.1833 319.427 80.73 317.91 73.71 317.91C66.7767 317.91 61.36 319.383 57.46 322.33C53.56 325.277 51.61 329.35 51.61 334.55C51.61 340.877 54.9033 345.773 61.49 349.24C64.4367 350.713 67.6433 352.1 71.11 353.4C74.6633 354.613 78.2167 356 81.77 357.56C85.3233 359.12 88.5733 360.897 91.52 362.89C94.4667 364.883 96.85 367.657 98.67 371.21C100.49 374.677 101.4 379.14 101.4 384.6C101.4 389.973 99.8833 394.567 96.85 398.38C93.8167 402.193 90.1333 404.793 85.8 406.18C81.5533 407.48 76.57 408.13 70.85 408.13C60.19 408.13 51.09 405.487 43.55 400.2L44.2 399.16C47.06 401.413 50.7433 403.277 55.25 404.75C59.8433 406.137 64.5233 406.83 69.29 406.83C76.31 406.83 82.29 405.227 87.23 402.02C92.2567 398.727 94.77 393.917 94.77 387.59C94.77 380.657 91.4767 375.24 84.89 371.34C81.9433 369.607 78.6933 368.003 75.14 366.53C71.6733 365.057 68.1633 363.54 64.61 361.98C61.0567 360.333 57.8067 358.513 54.86 356.52C48.2733 352.187 44.98 346.033 44.98 338.06C44.98 331.733 47.1033 326.62 51.35 322.72C55.5967 318.733 61.9667 316.74 70.46 316.74C79.04 316.74 87.75 318.213 96.59 321.16L96.07 322.46ZM170.904 364.71C170.904 348.937 174.718 336.977 182.344 328.83C190.058 320.597 199.938 316.48 211.984 316.48C224.031 316.48 233.608 320.033 240.714 327.14C247.908 334.247 251.504 345.6 251.504 361.2C251.504 376.8 247.691 388.587 240.064 396.56C232.438 404.533 222.254 408.52 209.514 408.52C198.508 408.52 189.494 405.357 182.474 399.03C178.834 395.737 175.974 391.187 173.894 385.38C171.901 379.487 170.904 372.597 170.904 364.71ZM211.594 317.78C202.841 317.78 195.648 321.68 190.014 329.48C184.468 337.28 181.694 348.72 181.694 363.8C181.694 378.88 184.338 389.887 189.624 396.82C194.911 403.753 201.931 407.22 210.684 407.22C219.524 407.22 226.718 403.32 232.264 395.52C237.898 387.633 240.714 376.237 240.714 361.33C240.714 346.337 238.028 335.33 232.654 328.31C227.368 321.29 220.348 317.78 211.594 317.78ZM376.039 317V318.3H335.089V359.9H373.049V361.2H335.089V408H324.299V317H376.039ZM435.399 408H433.839L472.709 317L474.139 316.35L506.899 408H495.849L485.709 379.4H447.749L435.399 408ZM468.679 331.04L448.269 378.1H485.319L468.679 331.04ZM579.449 408H577.759L589.069 317H593.359L620.659 401.11L647.829 317H652.119L663.429 408H652.639L643.669 335.2L620.139 408H611.949L588.159 336.11L579.449 408ZM869.443 322.46C861.556 319.427 854.103 317.91 847.083 317.91C840.15 317.91 834.733 319.383 830.833 322.33C826.933 325.277 824.983 329.35 824.983 334.55C824.983 340.877 828.276 345.773 834.863 349.24C837.81 350.713 841.016 352.1 844.483 353.4C848.036 354.613 851.59 356 855.143 357.56C858.696 359.12 861.946 360.897 864.893 362.89C867.84 364.883 870.223 367.657 872.043 371.21C873.863 374.677 874.773 379.14 874.773 384.6C874.773 389.973 873.256 394.567 870.223 398.38C867.19 402.193 863.506 404.793 859.173 406.18C854.926 407.48 849.943 408.13 844.223 408.13C833.563 408.13 824.463 405.487 816.923 400.2L817.573 399.16C820.433 401.413 824.116 403.277 828.623 404.75C833.216 406.137 837.896 406.83 842.663 406.83C849.683 406.83 855.663 405.227 860.603 402.02C865.63 398.727 868.143 393.917 868.143 387.59C868.143 380.657 864.85 375.24 858.263 371.34C855.316 369.607 852.066 368.003 848.513 366.53C845.046 365.057 841.536 363.54 837.983 361.98C834.43 360.333 831.18 358.513 828.233 356.52C821.646 352.187 818.353 346.033 818.353 338.06C818.353 331.733 820.476 326.62 824.723 322.72C828.97 318.733 835.34 316.74 843.833 316.74C852.413 316.74 861.123 318.213 869.963 321.16L869.443 322.46ZM1009.41 317H1011.1V369C1011.1 382.607 1008.41 392.617 1003.04 399.03C997.664 405.357 990.644 408.52 981.977 408.52C976.517 408.52 971.881 408.043 968.067 407.09C964.254 406.05 960.657 404.187 957.277 401.5C950.344 396.127 946.877 385.293 946.877 369V317H957.667V368.87C957.667 384.643 960.051 395.173 964.817 400.46C967.244 403.06 969.757 404.837 972.357 405.79C975.044 406.743 978.251 407.22 981.977 407.22C990.297 407.22 996.927 404.187 1001.87 398.12C1006.89 391.967 1009.41 382.217 1009.41 368.87V317Z" fill="#744026"/>
<path d="M744.801 408V355.74H748.701V408H744.801ZM736.221 408V355.74H740.121V408H736.221Z" fill="#BE8B48"/>
<path d="M310 85C310 54.6243 334.624 30 365 30H705C735.376 30 760 54.6243 760 85V142C760 146.418 756.418 150 752 150H318C313.582 150 310 146.418 310 142V85Z" fill="#944E25"/>
<path d="M265 197H805" stroke="#BE8B48" stroke-width="8" stroke-linecap="round"/>
<line x1="264" y1="254" x2="806" y2="254" stroke="#BE8B48" stroke-width="8" stroke-linecap="round"/>
<circle cx="742.5" cy="313.5" r="17.5" fill="#944E25"/>
</svg>
